<svg width="40" height="40" viewBox="0 0 40 40" fill="none" xmlns="http://www.w3.org/2000/svg">
<path d="M39.204 9.51726H19.4794L17.1783 3.24114C17.0629 2.92753 16.7644 2.71899 16.4309 2.71899H0.795956C0.356589 2.71899 0 3.07479 0 3.51495V31.8964C0 32.3365 0.356589 32.6923 0.795956 32.6923C1.23532 32.6923 1.59191 32.3365 1.59191 31.8964V4.31091H15.8754L17.7841 9.51726H6.68683C6.24746 9.51726 5.89087 9.87305 5.89087 10.3132C5.89087 10.7534 6.24746 11.1092 6.68683 11.1092H18.9231H38.4073V35.6891H0.795956C0.356589 35.6891 0 36.0449 0 36.4851C0 36.9252 0.356589 37.281 0.795956 37.281H39.204C39.6434 37.281 40 36.9252 40 36.4851V10.3132C40 9.87305 39.6434 9.51726 39.204 9.51726Z" fill="white"/>
<path d="M19.8949 18.5904C19.52 18.3603 19.0297 18.4789 18.8005 18.8546C17.9655 20.2205 17.5238 21.7917 17.5238 23.3987C17.5238 28.2087 21.4375 32.1224 26.2475 32.1224C31.0574 32.1224 34.9712 28.2087 34.9712 23.3987C34.9712 18.5888 31.0574 14.6751 26.2475 14.6751C24.7909 14.6751 23.3486 15.042 22.0759 15.7361C21.6898 15.947 21.5473 16.4301 21.7583 16.8154C21.9692 17.2006 22.4515 17.3447 22.8384 17.133C23.8779 16.5663 25.0567 16.2662 26.2475 16.2662C30.1795 16.2662 33.3792 19.4659 33.3792 23.398C33.3792 27.33 30.1795 30.5297 26.2475 30.5297C22.3154 30.5297 19.1157 27.33 19.1157 23.398C19.1157 22.0846 19.4763 20.7999 20.1584 19.684C20.3876 19.3107 20.2698 18.8204 19.8949 18.5904Z" fill="white"/>
<path d="M26.2475 18.6946C25.8081 18.6946 25.4515 19.0504 25.4515 19.4906V22.6028H22.3385C21.8992 22.6028 21.5426 22.9586 21.5426 23.3987C21.5426 23.8389 21.8992 24.1947 22.3385 24.1947H25.4515V27.3077C25.4515 27.7478 25.8081 28.1036 26.2475 28.1036C26.6868 28.1036 27.0434 27.7478 27.0434 27.3077V24.1947H30.1564C30.5958 24.1947 30.9524 23.8389 30.9524 23.3987C30.9524 22.9586 30.5958 22.6028 30.1564 22.6028H27.0434V19.4906C27.0434 19.0512 26.6868 18.6946 26.2475 18.6946Z" fill="white"/>
</svg>
