<svg width="60" height="60" viewBox="0 0 60 60" fill="none" xmlns="http://www.w3.org/2000/svg">
<path d="M5 46.25V13.75C5 10.2982 7.79822 7.5 11.25 7.5H48.75C52.2018 7.5 55 10.2982 55 13.75V46.25C55 49.7018 52.2018 52.5 48.75 52.5H11.25C7.79822 52.5 5 49.7018 5 46.25ZM7.5 36.2495C8.54458 35.4649 9.84299 35 11.25 35H48.75C50.157 35 51.4554 35.4649 52.5 36.2495V13.75C52.5 11.6789 50.8211 10 48.75 10H11.25C9.17893 10 7.5 11.6789 7.5 13.75V36.2495ZM7.5 46.25C7.5 48.3211 9.17893 50 11.25 50H48.75C50.8211 50 52.5 48.3211 52.5 46.25V41.25C52.5 39.1789 50.8211 37.5 48.75 37.5H11.25C9.17893 37.5 7.5 39.1789 7.5 41.25V46.25ZM43.75 40H48.75C49.4404 40 50 40.5596 50 41.25V46.25C50 46.9404 49.4404 47.5 48.75 47.5H43.75C43.0596 47.5 42.5 46.9404 42.5 46.25V41.25C42.5 40.5596 43.0596 40 43.75 40ZM45 42.5V45H47.5V42.5H45ZM13.75 45C13.0596 45 12.5 44.4404 12.5 43.75C12.5 43.0596 13.0596 42.5 13.75 42.5H28.75C29.4404 42.5 30 43.0596 30 43.75C30 44.4404 29.4404 45 28.75 45H13.75Z" fill="#515050"/>
</svg>
