<svg width="170" height="140" viewBox="0 0 170 140" fill="none" xmlns="http://www.w3.org/2000/svg">
<path d="M160.286 140H9.71429C4.37143 140 0 135.655 0 130.345V28.9655C0 23.6552 4.37143 19.3103 9.71429 19.3103H160.286C165.629 19.3103 170 23.6552 170 28.9655V130.345C170 135.655 165.629 140 160.286 140Z" fill="#77B5FF"/>
<path d="M160.286 19.3103H58.2857V9.65517C58.2857 4.34483 53.9143 0 48.5714 0H9.71429C4.37143 0 0 4.34483 0 9.65517V19.3103V38.6207H9.71429H24.2857H145.714H160.286H170V28.9655C170 23.6552 165.629 19.3103 160.286 19.3103Z" fill="#0071F5"/>
</svg>
