<svg width="48" height="40" viewBox="0 0 48 40" fill="none" xmlns="http://www.w3.org/2000/svg">
<path d="M32 24.0001L24 16.0001L16 24.0001L17.4222 25.2446L23.1111 19.5557V39.1111H24.8889V19.5557L30.5778 25.2446L32 24.0001Z" fill="white"/>
<path d="M42.4889 13.1556C41.6001 8.71116 37.5111 5.33333 32.8889 5.33333C31.2889 5.33333 29.8667 5.68889 28.6223 6.4C26.489 2.48889 22.4001 0 17.7779 0C10.8446 0 5.33343 5.51116 5.33343 12.4444C5.33343 12.6223 5.33343 12.9777 5.33343 13.1556C2.13333 14.5779 0 17.6 0 21.3333C0 26.3111 3.91111 30.2222 8.88889 30.2222H21.3333V28.4444H8.88889C4.97778 28.4444 1.77778 25.2444 1.77778 21.3333C1.77778 17.9556 4.08884 15.1111 7.28894 14.4C7.11111 13.6889 7.11111 13.1556 7.11111 12.4444C7.11111 6.57782 11.9112 1.77778 17.7778 1.77778C22.4 1.77778 26.3111 4.80005 27.9112 8.88889C29.3334 7.82222 31.1112 7.11111 32.8889 7.11111C37.1556 7.11111 40.5333 10.3111 40.8889 14.4C43.9112 15.1112 46.2222 17.9556 46.2222 21.3333C46.2222 25.2444 43.0222 28.4444 39.1111 28.4444H26.6667V30.2222H39.1111C44.0889 30.2222 48 26.3111 48 21.3333C48 17.6 45.6889 14.4 42.4889 13.1556Z" fill="white"/>
</svg>
